<mxfile host="app.diagrams.net" agent="Mozilla/5.0 (Windows NT 10.0; Win64; x64) AppleWebKit/537.36 (KHTML, like Gecko) Chrome/133.0.0.0 Safari/537.36" version="26.0.11">
  <diagram name="Page-1" id="vR_6nSwSQh1pMmyD3Sx2">
    <mxGraphModel dx="936" dy="528" grid="1" gridSize="10" guides="1" tooltips="1" connect="1" arrows="1" fold="1" page="1" pageScale="1" pageWidth="827" pageHeight="1169" math="0" shadow="0">
      <root>
        <mxCell id="0" />
        <mxCell id="1" parent="0" />
        <mxCell id="DOHgnXlRbuJ8W4uqjuyC-1" value="Online Food Delivery Management System" style="swimlane;html=1;childLayout=stackLayout;resizeParent=1;resizeParentMax=0;startSize=20;whiteSpace=wrap;" vertex="1" parent="1">
          <mxGeometry x="230" y="180" width="360" height="480" as="geometry" />
        </mxCell>
        <mxCell id="DOHgnXlRbuJ8W4uqjuyC-2" value="Customer" style="swimlane;html=1;startSize=20;" vertex="1" parent="DOHgnXlRbuJ8W4uqjuyC-1">
          <mxGeometry y="20" width="120" height="460" as="geometry" />
        </mxCell>
        <mxCell id="DOHgnXlRbuJ8W4uqjuyC-3" value="Food Delivery" style="swimlane;html=1;startSize=20;" vertex="1" parent="DOHgnXlRbuJ8W4uqjuyC-1">
          <mxGeometry x="120" y="20" width="120" height="460" as="geometry" />
        </mxCell>
        <mxCell id="DOHgnXlRbuJ8W4uqjuyC-4" value="Cafe" style="swimlane;html=1;startSize=20;" vertex="1" parent="DOHgnXlRbuJ8W4uqjuyC-1">
          <mxGeometry x="240" y="20" width="120" height="460" as="geometry" />
        </mxCell>
      </root>
    </mxGraphModel>
  </diagram>
</mxfile>
